<svg width="160.000000" height="41.000000" viewBox="0 0 160 41" fill="none" xmlns="http://www.w3.org/2000/svg" xmlns:xlink="http://www.w3.org/1999/xlink">
	<desc>
			Created with Pixso.
	</desc>
	<defs/>
	<path d="M92.6199 20.196L92.6199 30.06L95.6199 30.06L95.6199 20.196L98.7879 20.196L98.7879 17.94L95.5959 17.94L95.5959 17.004C95.5959 16.46 95.6839 16.028 95.8599 15.708C96.0519 15.372 96.3079 15.124 96.6279 14.964C96.9639 14.804 97.3399 14.724 97.7559 14.724C98.0279 14.724 98.3079 14.748 98.5959 14.796C98.8839 14.844 99.1319 14.908 99.3399 14.988L99.3399 12.636C99.0519 12.508 98.7079 12.42 98.3079 12.372C97.9239 12.324 97.5559 12.3 97.2039 12.3C95.6999 12.3 94.5559 12.684 93.7719 13.452C93.0039 14.22 92.6199 15.356 92.6199 16.86L92.6199 17.94L90.2919 17.94L90.2919 20.196L92.6199 20.196ZM115.405 12.396L115.405 30.06L118.405 30.06L118.405 12.396L115.405 12.396ZM58.856 15.684L58.856 30.06L61.952 30.06L61.952 15.684L67.544 15.684L67.544 13.14L53.264 13.14L53.264 15.684L58.856 15.684ZM67.5924 21.036L67.5924 30.06L70.6164 30.06L70.6164 23.604C70.6164 22.948 70.7284 22.364 70.9524 21.852C71.1924 21.34 71.5444 20.94 72.0084 20.652C72.4884 20.364 73.0724 20.22 73.7604 20.22Q74.2404 20.22 74.5524 20.268Q74.8884 20.316 75.3444 20.508L75.3684 17.868C75.1924 17.804 75.0164 17.764 74.8404 17.748C74.6644 17.716 74.4324 17.7 74.1444 17.7C73.5044 17.7 72.9124 17.828 72.3684 18.084C71.8244 18.34 71.3604 18.732 70.9764 19.26C70.8109 19.4975 70.6664 19.7625 70.5429 20.055L70.3284 17.94L67.4244 17.94Q67.5204 18.684 67.5444 19.476Q67.5924 20.268 67.5924 21.036ZM78.8171 29.556C79.6171 30.052 80.5451 30.3 81.6011 30.3Q82.6624 30.3 83.5651 29.9215Q83.9279 29.7693 84.2651 29.556C84.8267 29.2007 85.2528 28.7592 85.5435 28.2315L85.5611 30.06L88.5371 30.06L88.5371 20.964C88.5371 20.468 88.5531 19.964 88.5851 19.452C88.6331 18.94 88.6811 18.436 88.7291 17.94L85.8491 17.94L85.6407 19.9477Q85.5375 19.7343 85.4073 19.539Q84.9881 18.9102 84.2891 18.468C83.5211 17.956 82.6251 17.7 81.6011 17.7C80.5451 17.7 79.6171 17.956 78.8171 18.468Q78.5975 18.6041 78.3956 18.7628Q77.4941 19.4711 76.9451 20.628C76.4971 21.556 76.2731 22.676 76.2731 23.988Q76.2731 25.956 76.9451 27.372C77.3931 28.316 78.0171 29.044 78.8171 29.556ZM102.419 29.556C103.219 30.052 104.147 30.3 105.203 30.3C106.195 30.3 107.083 30.052 107.867 29.556C108.428 29.2007 108.854 28.7592 109.145 28.2315L109.163 30.06L112.139 30.06L112.139 20.964C112.139 20.468 112.155 19.964 112.187 19.452C112.235 18.94 112.283 18.436 112.331 17.94L109.451 17.94L109.242 19.9477Q109.139 19.7343 109.009 19.539Q108.59 18.9102 107.891 18.468C107.123 17.956 106.227 17.7 105.203 17.7C104.147 17.7 103.219 17.956 102.419 18.468Q102.199 18.6041 101.997 18.7627Q101.096 19.4711 100.547 20.628Q99.8746 22.02 99.8746 23.988Q99.8746 25.956 100.547 27.372C100.995 28.316 101.619 29.044 102.419 29.556ZM124.231 35.076C125.143 35.316 126.159 35.436 127.279 35.436C129.263 35.436 130.767 34.932 131.791 33.924C132.831 32.932 133.351 31.484 133.351 29.58L133.351 20.964C133.351 20.468 133.367 19.964 133.399 19.452C133.431 18.94 133.479 18.436 133.543 17.94L130.639 17.94L130.433 19.9387C130.147 19.3273 129.695 18.829 129.079 18.444Q128.933 18.3476 128.78 18.2636Q127.752 17.7 126.415 17.7C125.327 17.7 124.375 17.948 123.559 18.444C122.759 18.924 122.135 19.62 121.687 20.532C121.239 21.428 121.015 22.492 121.015 23.724Q121.015 25.572 121.687 26.94C122.135 27.852 122.759 28.556 123.559 29.052C124.375 29.532 125.327 29.772 126.415 29.772Q127.62 29.772 128.596 29.2997Q128.845 29.1792 129.079 29.028C129.668 28.6554 130.108 28.1879 130.399 27.6256L130.399 29.94Q130.399 31.3278 129.714 32.1279Q129.64 32.2133 129.559 32.292C129.015 32.852 128.183 33.132 127.063 33.132C126.519 33.132 125.983 33.084 125.455 32.988C124.927 32.892 124.415 32.748 123.919 32.556C123.423 32.364 122.943 32.116 122.479 31.812L121.831 33.972C122.535 34.468 123.335 34.836 124.231 35.076ZM138.489 29.556C139.289 30.052 140.217 30.3 141.273 30.3Q142.334 30.3 143.237 29.9215Q143.6 29.7693 143.937 29.556C144.499 29.2007 144.925 28.7592 145.215 28.2315L145.233 30.06L148.209 30.06L148.209 20.964Q148.209 20.22 148.257 19.452C148.305 18.94 148.353 18.436 148.401 17.94L145.521 17.94L145.313 19.9477C145.022 19.3476 144.572 18.8544 143.961 18.468C143.193 17.956 142.297 17.7 141.273 17.7C140.217 17.7 139.289 17.956 138.489 18.468C137.689 18.964 137.065 19.684 136.617 20.628Q135.945 22.02 135.945 23.988Q135.945 25.956 136.617 27.372C137.065 28.316 137.689 29.044 138.489 29.556ZM151.452 21.036L151.452 30.06L154.476 30.06L154.476 23.604C154.476 22.948 154.588 22.364 154.812 21.852C155.052 21.34 155.404 20.94 155.868 20.652C156.348 20.364 156.932 20.22 157.62 20.22Q158.1 20.22 158.412 20.268Q158.748 20.316 159.204 20.508L159.228 17.868C159.052 17.804 158.876 17.764 158.7 17.748C158.524 17.716 158.292 17.7 158.004 17.7C157.364 17.7 156.772 17.828 156.228 18.084C155.684 18.34 155.22 18.732 154.836 19.26C154.67 19.4975 154.526 19.7625 154.402 20.055L154.188 17.94L151.284 17.94C151.348 18.436 151.388 18.948 151.404 19.476C151.436 20.004 151.452 20.524 151.452 21.036ZM84.7211 27.012C84.1451 27.668 83.3851 27.996 82.4411 27.996C81.4811 27.996 80.7131 27.668 80.1371 27.012C79.5771 26.34 79.2971 25.332 79.2971 23.988Q79.2971 21.972 80.1611 20.988Q80.4945 20.6082 80.9103 20.375Q81.5716 20.004 82.4411 20.004Q83.3105 20.004 83.9719 20.375Q84.3876 20.6082 84.7211 20.988C85.2971 21.644 85.5851 22.644 85.5851 23.988C85.5851 25.332 85.2971 26.34 84.7211 27.012ZM108.323 27.012C107.747 27.668 106.987 27.996 106.043 27.996C105.083 27.996 104.315 27.668 103.739 27.012C103.179 26.34 102.899 25.332 102.899 23.988C102.899 22.644 103.187 21.644 103.763 20.988C104.339 20.332 105.099 20.004 106.043 20.004C106.987 20.004 107.747 20.332 108.323 20.988C108.899 21.644 109.187 22.644 109.187 23.988C109.187 25.332 108.899 26.34 108.323 27.012ZM129.511 26.508C128.951 27.148 128.191 27.468 127.231 27.468C126.255 27.468 125.479 27.148 124.903 26.508C124.327 25.852 124.039 24.924 124.039 23.724C124.039 22.524 124.327 21.604 124.903 20.964C125.479 20.324 126.255 20.004 127.231 20.004C128.191 20.004 128.951 20.324 129.511 20.964C130.087 21.604 130.375 22.524 130.375 23.724C130.375 24.924 130.087 25.852 129.511 26.508ZM144.393 27.012C143.817 27.668 143.057 27.996 142.113 27.996C141.153 27.996 140.385 27.668 139.809 27.012C139.249 26.34 138.969 25.332 138.969 23.988C138.969 22.644 139.257 21.644 139.833 20.988C140.409 20.332 141.169 20.004 142.113 20.004C143.057 20.004 143.817 20.332 144.393 20.988C144.969 21.644 145.257 22.644 145.257 23.988C145.257 25.332 144.969 26.34 144.393 27.012Z" fill="#233348" fill-opacity="1.000000" fill-rule="evenodd"/>
	<circle cx="20.500000" cy="20.500000" r="20.500000" fill="#458FF6" fill-opacity="1.000000"/>
	<path d="M19.344 15.741L19.344 31.315L22.698 31.315L22.698 15.741L28.756 15.741L28.756 12.985L13.286 12.985L13.286 15.741L19.344 15.741Z" fill="#FFFFFF" fill-opacity="1.000000" fill-rule="evenodd"/>
</svg>
